HIERARCHY
ROOT root
{
	OFFSET 0.000000 0.000000 0.000000
	CHANNELS 6 Xposition Yposition Zposition Zrotation Yrotation Xrotation
	JOINT lhip
	{
		OFFSET 0.058581 -0.082280 -0.017664
		CHANNELS 3 Zrotation Yrotation Xrotation
		JOINT lknee
		{
			OFFSET 0.043451 -0.386469 0.008037
			CHANNELS 3 Zrotation Yrotation Xrotation
			JOINT lankle
			{
				OFFSET -0.014790 -0.426874 -0.037428
				CHANNELS 3 Zrotation Yrotation Xrotation
				JOINT ltoe
				{
					OFFSET 0.041054 -0.060286 0.122042
					CHANNELS 3 Zrotation Yrotation Xrotation
					End Site
					{
						OFFSET 0.000000 0.000000 0.000000
					}
				}
			}
		}
	}
	JOINT rhip
	{
		OFFSET -0.060310 -0.090513 -0.013543
		CHANNELS 3 Zrotation Yrotation Xrotation
		JOINT rknee
		{
			OFFSET -0.043257 -0.383688 -0.004843
			CHANNELS 3 Zrotation Yrotation Xrotation
			JOINT rankle
			{
				OFFSET 0.019056 -0.420046 -0.034562
				CHANNELS 3 Zrotation Yrotation Xrotation
				JOINT rtoe
				{
					OFFSET -0.034840 -0.062106 0.130323
					CHANNELS 3 Zrotation Yrotation Xrotation
					End Site
					{
						OFFSET 0.000000 0.000000 0.000000
					}
				}
			}
		}
	}
	JOINT lowerback
	{
		OFFSET 0.004439 0.124404 -0.038385
		CHANNELS 3 Zrotation Yrotation Xrotation
		JOINT upperback
		{
			OFFSET 0.004488 0.137956 0.026820
			CHANNELS 3 Zrotation Yrotation Xrotation
			JOINT chest
			{
				OFFSET -0.002265 0.056032 0.002855
				CHANNELS 3 Zrotation Yrotation Xrotation
				JOINT lowerneck
				{
					OFFSET -0.013390 0.211636 -0.033468
					CHANNELS 3 Zrotation Yrotation Xrotation
					JOINT upperneck
					{
						OFFSET 0.010113 0.088937 0.050410
						CHANNELS 3 Zrotation Yrotation Xrotation
						End Site
						{
							OFFSET 0.000000 0.000000 0.000000
						}
					}
				}
				JOINT lclavicle
				{
					OFFSET 0.071702 0.114000 -0.018898
					CHANNELS 3 Zrotation Yrotation Xrotation
					JOINT lshoulder
					{
						OFFSET 0.122921 0.045205 -0.019046
						CHANNELS 3 Zrotation Yrotation Xrotation
						JOINT lelbow
						{
							OFFSET 0.255332 -0.015649 -0.022946
							CHANNELS 3 Zrotation Yrotation Xrotation
							JOINT lwrist
							{
								OFFSET 0.265709 0.012698 -0.007375
								CHANNELS 3 Zrotation Yrotation Xrotation
								End Site
								{
									OFFSET 0.000000 0.000000 0.000000
								}
							}
						}
					}
				}
				JOINT rclavicle
				{
					OFFSET -0.082954 0.112472 -0.023707
					CHANNELS 3 Zrotation Yrotation Xrotation
					JOINT rshoulder
					{
						OFFSET -0.113228 0.046853 -0.008472
						CHANNELS 3 Zrotation Yrotation Xrotation
						JOINT relbow
						{
							OFFSET -0.260127 -0.014369 -0.031269
							CHANNELS 3 Zrotation Yrotation Xrotation
							JOINT rwrist
							{
								OFFSET -0.269108 0.006794 -0.006027
								CHANNELS 3 Zrotation Yrotation Xrotation
								End Site
								{
									OFFSET 0.000000 0.000000 0.000000
								}
							}
						}
					}
				}
			}
		}
	}
}
MOTION
Frames: 8
Frame Time: 0.033333
-1.287313 0.906704 0.946974 -12.913692 -0.331701 104.545882 1.886261 -4.616823 -33.334548 -9.147619 -0.603928 25.633459 7.205431 17.632585 -20.453968 0.000000 -0.000000 0.000000 -4.752463 7.156400 -48.330365 3.569259 3.609310 39.319258 7.821425 -10.309939 -10.505055 0.000000 -0.000000 0.000000 -0.840109 -3.603995 36.520824 1.825284 1.469375 -16.634544 -0.604987 -2.898710 9.743973 3.957524 -16.054080 -9.534578 2.866243 -20.780361 10.095998 -27.024917 12.533865 0.707176 -37.506619 3.168540 20.841656 -29.225311 -62.475643 37.288798 12.989175 -11.669639 -22.532320 24.544415 -6.392062 -8.145653 45.702307 -7.631057 25.017279 4.460666 58.407907 14.484003 -5.572822 11.026102 -6.975537 
-1.287778 0.903215 0.947372 -12.923113 -0.504935 104.827136 1.829209 -4.676065 -33.131170 -9.357326 -0.731929 25.126963 7.223318 17.607898 -20.365503 0.000000 -0.000000 0.000000 -4.806283 6.983056 -48.452703 3.807216 4.003800 39.540190 7.827420 -10.770294 -10.853013 0.000000 -0.000000 0.000000 -0.722298 -3.748763 36.522330 1.517070 1.495529 -16.907478 -0.668405 -2.988878 9.881505 3.295200 -8.799003 -11.318413 1.521737 -13.414895 14.137482 -27.389779 12.358521 0.368647 -37.039456 3.560379 20.647022 -29.338825 -62.272423 37.072635 13.244393 -11.908091 -22.495712 25.478792 -6.743487 -7.989719 45.022822 -7.081052 25.516907 3.697725 58.532363 13.296547 -5.233294 11.353583 -6.865985 
-1.288467 0.899440 0.947619 -12.955274 -0.805427 105.212361 1.760954 -4.705216 -32.969131 -9.718515 -0.796925 24.478881 7.219188 17.567159 -20.122557 0.000000 -0.000000 0.000000 -4.860186 6.872042 -48.724622 3.971419 4.667691 39.842754 7.794256 -11.520849 -11.171280 0.000000 -0.000000 0.000000 -0.720548 -3.797620 36.500853 1.109992 1.597647 -17.477826 -0.532960 -3.274633 9.868920 2.539886 0.578162 -12.738808 0.396558 -1.773088 18.329129 -28.179008 12.132092 -0.186101 -36.093546 4.258332 20.413752 -29.687709 -61.765132 36.883189 13.760650 -12.096392 -22.440984 26.254173 -7.181983 -7.640388 44.256800 -6.446999 26.450349 2.663136 58.302545 11.410035 -4.754747 11.756637 -6.457059 
-1.289674 0.894887 0.947877 -12.738894 -1.115588 105.541061 1.621827 -4.626974 -32.786614 -10.060731 -0.936355 23.930723 7.071243 17.329473 -19.966233 0.000000 -0.000000 0.000000 -4.937450 6.861541 -48.897452 3.911937 5.123993 40.199314 7.787337 -12.223437 -11.627200 0.000000 -0.000000 0.000000 -0.695007 -3.819437 36.596612 0.823207 1.750042 -18.268239 -0.190039 -3.561891 9.789195 1.531058 9.509154 -13.080810 -0.578278 10.113942 20.848076 -28.952095 11.969871 -0.690492 -35.331788 4.880875 20.031207 -30.058117 -60.978313 37.032407 13.885181 -12.408519 -21.931574 26.664906 -7.843615 -7.301545 43.570661 -5.802090 27.221102 2.091874 57.749880 9.947366 -4.184256 12.111458 -5.937554 
-1.291044 0.889799 0.948098 -12.252356 -1.405365 105.658073 1.333373 -4.597461 -32.461640 -10.193170 -1.207193 23.596845 6.874040 17.008188 -19.968556 0.000000 -0.000000 0.000000 -5.126912 6.782052 -48.852389 3.755074 5.100122 40.612330 7.817739 -12.534919 -12.121734 0.000000 -0.000000 0.000000 -0.378941 -3.938807 36.713399 0.494387 1.908131 -18.701532 -0.061914 -3.630115 9.752568 -0.219890 15.161042 -12.813402 -1.817535 17.430081 20.683276 -29.192682 11.794603 -1.105097 -34.933061 5.180584 19.864856 -30.532265 -60.512117 37.604285 13.748131 -12.586303 -21.533888 27.014105 -8.279826 -7.206928 43.142201 -5.477143 27.502440 1.810512 57.100599 8.932341 -3.963899 12.241965 -5.353566 
-1.292533 0.885054 0.948486 -11.589342 -1.628846 105.669906 1.049678 -4.788205 -32.191524 -10.199746 -1.629872 23.539272 6.779867 16.940026 -20.030098 0.000000 -0.000000 0.000000 -5.297859 6.616797 -48.717024 3.636689 4.860107 41.009856 7.852434 -12.712919 -12.493387 0.000000 -0.000000 0.000000 0.005888 -4.081936 36.833693 0.171694 2.026204 -18.881136 -0.124547 -3.598011 9.773617 -1.952071 17.624868 -12.874741 -3.315172 20.517313 19.592974 -29.068346 11.654045 -1.235994 -34.699548 5.257202 19.933138 -31.353337 -60.586500 38.440328 13.888328 -12.637886 -21.699427 27.167501 -8.359729 -7.169072 43.047560 -5.205383 27.614164 1.701726 56.307077 8.302697 -3.857592 12.234911 -4.697934 
-1.294611 0.880901 0.949013 -10.830030 -1.691696 105.698291 0.872710 -4.993171 -32.020105 -10.053228 -2.145778 23.651660 6.778804 16.948072 -20.111864 0.000000 -0.000000 0.000000 -5.224429 6.475153 -48.505203 3.512146 4.681276 41.276403 7.803857 -12.936631 -12.816971 0.000000 -0.000000 0.000000 0.188619 -4.099175 36.911482 0.050113 2.108790 -18.893353 -0.105560 -3.556366 9.661622 -3.113803 18.290473 -13.075116 -4.270845 21.476253 18.944099 -28.840372 11.497998 -1.153731 -34.586938 5.382595 20.088713 -32.454023 -60.890503 39.779217 14.014549 -12.644463 -21.869427 27.179033 -8.161357 -7.085611 42.955017 -5.135601 27.554142 1.701592 55.846277 8.009545 -3.720975 12.200712 -4.262725 
-1.297094 0.877101 0.949575 -10.023586 -1.660547 105.848478 0.843581 -5.226974 -31.982640 -9.847417 -2.675703 23.733875 6.758041 16.936852 -20.182913 0.000000 -0.000000 0.000000 -5.060170 6.413168 -48.325338 3.349377 4.526955 41.370822 7.716531 -13.161471 -13.140237 0.000000 -0.000000 0.000000 0.171328 -4.008492 36.781014 0.107179 2.127218 -18.773041 0.009411 -3.565437 9.553364 -3.621194 18.522341 -13.111289 -4.817773 21.999279 18.373532 -28.776855 11.492860 -1.113926 -34.475976 5.485399 20.181397 -33.367478 -61.196142 40.991214 13.906038 -12.640624 -21.893060 27.244433 -8.025171 -7.114899 42.640105 -5.006143 27.513903 1.788497 55.810413 8.093217 -3.603036 12.198444 -3.998009 
